<svg width="185" height="15" viewBox="0 0 185 15" fill="none" xmlns="http://www.w3.org/2000/svg">
<path d="M5.40341 11.1591C8.31179 11.1591 10.6634 8.80753 10.6534 5.90909C10.6435 3.01065 8.31179 0.659091 5.40341 0.659091C2.51491 0.659091 0.163352 3.01065 0.153409 5.90909C0.143466 8.80753 2.51491 11.1591 5.40341 11.1591ZM5.40341 10.0057C3.14134 10.0057 1.29688 8.16122 1.30682 5.91406C1.31676 3.65199 3.15128 1.8125 5.40341 1.8125C7.66548 1.8125 9.49006 3.64205 9.5 5.91406C9.50994 8.17116 7.67543 10.0057 5.40341 10.0057ZM2.5 5.90909C2.5 7.53977 3.82244 8.86222 5.45312 8.86222C6.86506 8.86222 7.94886 7.8679 8.13778 6.54545H6.93466C6.79545 7.22656 6.21875 7.70881 5.45312 7.70881C4.45881 7.70881 3.65341 6.90341 3.65341 5.90909C3.65341 4.91477 4.45881 4.10938 5.45312 4.10938C6.21875 4.10938 6.89986 4.59162 7.03409 5.27273H8.23722C8.0483 3.95028 6.86506 2.95597 5.45312 2.95597C3.82244 2.95597 2.5 4.27841 2.5 5.90909ZM16.802 11H23.2253V9.90625H18.4924V9.8267L20.7793 7.38068C22.5293 5.50639 23.0463 4.63139 23.0463 3.50284C23.0463 1.93182 21.7736 0.678977 19.9838 0.678977C18.199 0.678977 16.8418 1.89205 16.8418 3.68182H18.0151C18.0151 2.52344 18.7658 1.75284 19.9441 1.75284C21.0478 1.75284 21.8929 2.42898 21.8929 3.50284C21.8929 4.44247 21.3411 5.13849 20.1628 6.42614L16.802 10.1051V11ZM28.5996 11.1392C30.8468 11.1392 32.1394 9.23509 32.1394 5.90909C32.1394 2.60795 30.8269 0.678977 28.5996 0.678977C26.3723 0.678977 25.0598 2.60795 25.0598 5.90909C25.0598 9.23509 26.3525 11.1392 28.5996 11.1392ZM28.5996 10.0455C27.1181 10.0455 26.253 8.55895 26.253 5.90909C26.253 3.2642 27.128 1.75284 28.5996 1.75284C30.0712 1.75284 30.9462 3.2642 30.9462 5.90909C30.9462 8.55895 30.0811 10.0455 28.5996 10.0455ZM34.0286 11H40.4519V9.90625H35.7189V9.8267L38.0059 7.38068C39.7559 5.50639 40.2729 4.63139 40.2729 3.50284C40.2729 1.93182 39.0002 0.678977 37.2104 0.678977C35.4256 0.678977 34.0684 1.89205 34.0684 3.68182H35.2417C35.2417 2.52344 35.9924 1.75284 37.1706 1.75284C38.2743 1.75284 39.1195 2.42898 39.1195 3.50284C39.1195 4.44247 38.5676 5.13849 37.3894 6.42614L34.0286 10.1051V11ZM45.8262 11.1392C48.0733 11.1392 49.3659 9.23509 49.3659 5.90909C49.3659 2.60795 48.0534 0.678977 45.8262 0.678977C43.5989 0.678977 42.2864 2.60795 42.2864 5.90909C42.2864 9.23509 43.579 11.1392 45.8262 11.1392ZM45.8262 10.0455C44.3446 10.0455 43.4796 8.55895 43.4796 5.90909C43.4796 3.2642 44.3546 1.75284 45.8262 1.75284C47.2978 1.75284 48.1728 3.2642 48.1728 5.90909C48.1728 8.55895 47.3077 10.0455 45.8262 10.0455ZM59.5875 5.36222H55.133V6.45597H59.5875V5.36222ZM66.1662 11L67.1903 8.11648H71.3068L72.331 11H73.6236L69.8849 0.818182H68.6122L64.8736 11H66.1662ZM67.5781 7.02273L69.2088 2.42898H69.2884L70.919 7.02273H67.5781ZM75.0504 0.818182V9.32955C75.0504 10.4183 75.6072 11.0597 76.7209 11.0597C77.0589 11.0597 77.392 11 77.5959 10.9403L77.3572 9.92614C77.2429 9.96094 77.1385 9.99574 76.8601 10.0057C76.343 10.0206 76.2237 9.75213 76.2237 9.01136V0.818182H75.0504ZM78.8786 0.818182V9.32955C78.8786 10.4183 79.4354 11.0597 80.549 11.0597C80.8871 11.0597 81.2202 11 81.424 10.9403L81.1854 9.92614C81.071 9.96094 80.9666 9.99574 80.6882 10.0057C80.1712 10.0206 80.0518 9.75213 80.0518 9.01136V0.818182H78.8786ZM86.4391 11H87.6124V6.16761C87.6124 5.13849 88.4277 4.37784 89.5414 4.37784C89.8347 4.37784 90.0534 4.43253 90.2175 4.51705L90.6152 3.52273C90.3766 3.35369 90.0634 3.24432 89.6408 3.24432C88.7161 3.24432 87.9256 3.76136 87.6522 4.51705H87.5726V3.36364H86.4391V11ZM91.8121 11H92.9854V3.36364H91.8121V11ZM92.4087 2.09091C92.8661 2.09091 93.244 1.73295 93.244 1.29545C93.244 0.857955 92.8661 0.5 92.4087 0.5C91.9513 0.5 91.5735 0.857955 91.5735 1.29545C91.5735 1.73295 91.9513 2.09091 92.4087 2.09091ZM98.2168 14.0227C100.046 14.0227 101.518 13.1875 101.518 11.2188V3.36364H100.384V4.5767H100.265C100.007 4.17898 99.5293 3.2642 98.0378 3.2642C96.1088 3.2642 94.7765 4.79545 94.7765 7.14205C94.7765 9.52841 96.1685 10.8807 98.0179 10.8807C99.5094 10.8807 99.9867 10.0057 100.245 9.58807H100.345V11.1392C100.345 12.4119 99.4498 12.9886 98.2168 12.9886C96.8297 12.9886 96.3425 12.2578 96.0293 11.8352L95.0946 12.4915C95.5719 13.2919 96.5115 14.0227 98.2168 14.0227ZM98.177 9.8267C96.7054 9.8267 95.9498 8.71307 95.9498 7.12216C95.9498 5.57102 96.6855 4.31818 98.177 4.31818C99.6088 4.31818 100.365 5.47159 100.365 7.12216C100.365 8.8125 99.589 9.8267 98.177 9.8267ZM104.839 6.40625C104.839 5.07386 105.689 4.31818 106.847 4.31818C107.951 4.31818 108.617 5.0142 108.617 6.22727V11H109.791V6.14773C109.791 4.18395 108.747 3.2642 107.186 3.2642C105.982 3.2642 105.296 3.76633 104.938 4.55682H104.839V0.818182H103.666V11H104.839V6.40625ZM115.258 3.36364H113.627V1.53409H112.454V3.36364H111.301V4.35795H112.454V9.13068C112.454 10.4631 113.528 11.0994 114.522 11.0994C114.96 11.0994 115.238 11.0199 115.397 10.9602L115.159 9.90625C115.059 9.92614 114.9 9.96591 114.642 9.96591C114.125 9.96591 113.627 9.80682 113.627 8.8125V4.35795H115.258V3.36364ZM122.295 5.07386C121.928 3.99006 121.102 3.2642 119.591 3.2642C117.98 3.2642 116.787 4.17898 116.787 5.47159C116.787 6.52557 117.413 7.23153 118.815 7.55966L120.088 7.85795C120.859 8.03693 121.222 8.40483 121.222 8.93182C121.222 9.58807 120.526 10.125 119.432 10.125C118.472 10.125 117.871 9.71236 117.662 8.89205L116.548 9.17045C116.822 10.468 117.891 11.1591 119.452 11.1591C121.227 11.1591 122.435 10.1896 122.435 8.87216C122.435 7.80824 121.768 7.13707 120.406 6.80398L119.273 6.52557C118.368 6.30185 117.96 5.99858 117.96 5.41193C117.96 4.75568 118.656 4.27841 119.591 4.27841C120.615 4.27841 121.038 4.84517 121.241 5.37216L122.295 5.07386ZM128.138 11H129.312V6.16761C129.312 5.13849 130.127 4.37784 131.241 4.37784C131.534 4.37784 131.753 4.43253 131.917 4.51705L132.314 3.52273C132.076 3.35369 131.763 3.24432 131.34 3.24432C130.415 3.24432 129.625 3.76136 129.351 4.51705H129.272V3.36364H128.138V11ZM136.481 11.1591C138.032 11.1591 139.165 10.3835 139.523 9.23011L138.39 8.91193C138.091 9.70739 137.4 10.1051 136.481 10.1051C135.104 10.1051 134.154 9.2152 134.099 7.57955H139.643V7.08239C139.643 4.23864 137.952 3.2642 136.361 3.2642C134.293 3.2642 132.921 4.89489 132.921 7.24148C132.921 9.58807 134.273 11.1591 136.481 11.1591ZM134.099 6.56534C134.179 5.37713 135.019 4.31818 136.361 4.31818C137.634 4.31818 138.449 5.27273 138.449 6.56534H134.099ZM146.836 5.07386C146.469 3.99006 145.643 3.2642 144.132 3.2642C142.521 3.2642 141.328 4.17898 141.328 5.47159C141.328 6.52557 141.954 7.23153 143.356 7.55966L144.629 7.85795C145.4 8.03693 145.763 8.40483 145.763 8.93182C145.763 9.58807 145.067 10.125 143.973 10.125C143.013 10.125 142.412 9.71236 142.203 8.89205L141.089 9.17045C141.363 10.468 142.432 11.1591 143.993 11.1591C145.768 11.1591 146.976 10.1896 146.976 8.87216C146.976 7.80824 146.309 7.13707 144.947 6.80398L143.814 6.52557C142.909 6.30185 142.501 5.99858 142.501 5.41193C142.501 4.75568 143.197 4.27841 144.132 4.27841C145.156 4.27841 145.579 4.84517 145.782 5.37216L146.836 5.07386ZM151.944 11.1591C153.495 11.1591 154.628 10.3835 154.986 9.23011L153.853 8.91193C153.554 9.70739 152.863 10.1051 151.944 10.1051C150.566 10.1051 149.617 9.2152 149.562 7.57955H155.105V7.08239C155.105 4.23864 153.415 3.2642 151.824 3.2642C149.756 3.2642 148.384 4.89489 148.384 7.24148C148.384 9.58807 149.736 11.1591 151.944 11.1591ZM149.562 6.56534C149.642 5.37713 150.482 4.31818 151.824 4.31818C153.097 4.31818 153.912 5.27273 153.912 6.56534H149.562ZM156.89 11H158.064V6.16761C158.064 5.13849 158.879 4.37784 159.993 4.37784C160.286 4.37784 160.505 4.43253 160.669 4.51705L161.066 3.52273C160.828 3.35369 160.515 3.24432 160.092 3.24432C159.167 3.24432 158.377 3.76136 158.103 4.51705H158.024V3.36364H156.89V11ZM168.631 3.36364H167.358L165.25 9.44886H165.17L163.062 3.36364H161.79L164.614 11H165.807L168.631 3.36364ZM173.108 11.1591C174.659 11.1591 175.792 10.3835 176.15 9.23011L175.017 8.91193C174.718 9.70739 174.027 10.1051 173.108 10.1051C171.73 10.1051 170.781 9.2152 170.726 7.57955H176.27V7.08239C176.27 4.23864 174.579 3.2642 172.988 3.2642C170.92 3.2642 169.548 4.89489 169.548 7.24148C169.548 9.58807 170.9 11.1591 173.108 11.1591ZM170.726 6.56534C170.806 5.37713 171.646 4.31818 172.988 4.31818C174.261 4.31818 175.076 5.27273 175.076 6.56534H170.726ZM180.938 11.1591C182.409 11.1591 182.907 10.2443 183.165 9.8267H183.304V11H184.438V0.818182H183.265V4.5767H183.165C182.907 4.17898 182.449 3.2642 180.958 3.2642C179.029 3.2642 177.696 4.79545 177.696 7.2017C177.696 9.62784 179.029 11.1591 180.938 11.1591ZM181.097 10.1051C179.625 10.1051 178.87 8.8125 178.87 7.18182C178.87 5.57102 179.605 4.31818 181.097 4.31818C182.529 4.31818 183.284 5.47159 183.284 7.18182C183.284 8.91193 182.509 10.1051 181.097 10.1051Z" fill="#D9DBE1"/>
</svg>
